<svg width="294" height="294" viewBox="0 0 294 294" fill="none" xmlns="http://www.w3.org/2000/svg">
<path fill-rule="evenodd" clip-rule="evenodd" d="M147 294C228.186 294 294 228.186 294 147C294 65.8141 228.186 0 147 0C65.8141 0 0 65.8141 0 147C0 228.186 65.8141 294 147 294ZM215.054 78V132.98C215.134 133.3 215.174 133.64 215.174 133.98C215.174 139.573 215.482 146.072 215.814 153.082C217.714 193.165 220.406 249.98 170.864 249.98H128.554C108.764 249.98 90.954 238.99 82.084 221.29L46.314 149.92C44.864 147.1 44.604 143.85 45.584 140.8C46.574 137.75 48.684 135.26 51.534 133.8C53.324 132.89 55.164 132.42 56.994 132.42C59.514 132.42 63.264 133.33 66.844 137.64C66.844 137.64 83.9792 173.865 108.674 200.98C134.276 229.091 171.111 232.013 187.054 218.98C217 194.5 199.36 159.199 180.674 149.92C152.978 136.167 120.674 155.48 139.024 181C134.174 164.48 153.643 153.587 167.174 162.98C174.734 168.228 181.054 178.48 173.674 193.48C166.294 208.48 95.054 222.856 95.054 132.99V61.99C95.054 55.12 100.824 49.57 107.844 50.02C114.134 50.43 119.054 55.81 119.054 62.27V134C119.054 136.21 120.844 138 123.054 138C125.264 138 127.054 136.21 127.054 134V45.97C127.054 39.37 132.364 34 139.024 34C145.684 34 151.054 39.37 151.054 45.97V125.99C151.054 128.2 152.844 129.99 155.054 129.99C157.264 129.99 159.054 128.2 159.054 125.99V53.99C159.054 47.12 164.844 41.57 171.844 42.02C178.134 42.43 183.054 47.81 183.054 54.27V133.99C183.054 136.2 184.844 137.99 187.054 137.99C189.264 137.99 191.054 136.2 191.054 133.99V77.72C191.054 70.85 196.834 65.3 203.844 65.75C210.134 66.16 215.054 71.54 215.054 78Z" fill="url(#paint0_linear_826_21250)"/>
<defs>
<linearGradient id="paint0_linear_826_21250" x1="147" y1="0" x2="147" y2="294" gradientUnits="userSpaceOnUse">
<stop stop-color="#5E90F1"/>
<stop offset="1" stop-color="#04BFAE"/>
</linearGradient>
</defs>
</svg>
